<svg fill="#d5d4ea80" version="1.1" id="Capa_1" xmlns="http://www.w3.org/2000/svg" xmlns:xlink="http://www.w3.org/1999/xlink" width="64px" height="64px" viewBox="0 0 32 32" xml:space="preserve"><g id="SVGRepo_bgCarrier" stroke-width="0"></g><g id="SVGRepo_tracerCarrier" stroke-linecap="round" stroke-linejoin="round"></g><g id="SVGRepo_iconCarrier"> <g> <path d="M25.023,19.425c5.49-1.341,5.793-6.572,3.631-10.68C26.493,4.639,23.121-2.538,18.02,2.478 c-0.26-0.864-7.437-3.891-8.861,3.935c-1.428,7.824,0.129,10.549,4.236,15.521c0.058,0.062,0.113,0.123,0.171,0.187 c-0.954-0.43-1.621-0.669-1.556-0.587c-0.138,0.015-0.267,0.056-0.383,0.12c-2.78-1.773-5.159-4.125-5.947-5.515 c-0.337-0.593-0.5-2.229-0.674-3.964c-0.201-2.016-0.427-4.257-0.98-5.487c0.076-0.084,0.126-0.193,0.126-0.316 c0-0.262-0.213-0.476-0.475-0.476c-0.262,0-0.475,0.213-0.475,0.475c0,0.262,0.213,0.475,0.475,0.475 c0.045,0,0.086-0.014,0.128-0.025c0.522,1.184,0.744,3.394,0.943,5.38c0.183,1.837,0.342,3.425,0.705,4.064 c0.719,1.266,2.719,3.308,5.143,5.01c-1.714-0.491-8.592-2.641-9.89-5.966c0.144-0.082,0.245-0.229,0.245-0.407 c0-0.262-0.212-0.476-0.475-0.476C0.214,14.426,0,14.639,0,14.901c0,0.256,0.202,0.46,0.454,0.472 c1.487,3.922,10.061,6.154,10.434,6.25l0.47,0.247c-0.153,0.177-0.252,0.405-0.252,0.657c0,0.555,0.45,1.006,1.005,1.006 c0.404,0,0.75-0.238,0.91-0.582c0.289,0.393,0.932,1.123,2.138,1.815c0.579,0.333,1.409,0.63,2.274,1.05 c0.758,0.605,1.568,1.195,2.474,1.797c0.733,0.852,1.284,1.996,1.409,3.625c0.06-0.533,0.363-1.583-0.248-2.986 c2.106,0.861,3.76-0.222,7.111-1.822C32.068,24.57,35.529,20.074,25.023,19.425z"></path> </g> </g></svg>